<svg xmlns="http://www.w3.org/2000/svg" id="Layer_2" data-name="Layer 2" viewBox="0 0 754.32 165.8"><defs><style> .cls-1 { fill: #37171d; } .cls-2 { fill: #f48a96; } </style></defs><g id="Layer_1-2" data-name="Layer 1"><path class="cls-1" d="M650.64,18.3c0-6.04-2.35-11-8.82-13.34-2.01-.76-4.61-1.09-7.55-1.09-11.25,0-27.71,4.87-39.96,10.24-22.75,10.08-30.82,21.24-30.82,32.83,0,23,31.99,47.35,43.75,66.75,15.44-10.49,31.65-20.57,48.02-25.44.34-.17.67-.25,1.01-.25,1.5,0,2.84,1.93,2.84,3.61,0,.67-.25,1.34-.75,1.76-16.12,4.87-33.33,14.27-48.6,24.68,2.43,3.7,3.53,7.31,3.53,10.92,0,19.81-33,36.85-47.44,36.85h-.51c-3.02-.16-4.44-1.51-4.44-3.69,0-1,.33-2.18.92-3.61,4.96-11.75,32.58-35.85,42.66-42.9-13.93-23.17-44.91-46.17-44.91-68.93,0-13.01,10.08-26.02,39.2-38.87,11.17-4.95,23.01-7.81,32.74-7.81,4.28,0,8.23.59,11.5,1.76,8.9,3.27,11.92,10.32,11.92,18.55,0,17.29-13.43,39.2-13.51,39.29-1.01,1.67-2.78,2.6-4.46,2.6-1.85,0-3.43-1.18-3.53-3.69.1-.08,17.21-23.93,17.21-40.22ZM564.93,159.76c-.26.59-.42,1.18-.42,1.6,0,.67.34,1,1.01,1.09.75.08,1.5.17,2.26.17,14.7,0,41.4-15.53,41.4-33.67,0-2.94-.67-5.96-2.27-8.98-10.32,7.22-36.86,27.87-41.97,39.79Z"></path><path class="cls-1" d="M691.16,28.46c0,15.2-30.05,60.78-31.06,60.78l-.42,1.18c-2.09,6.38-3.77,11.5-5.37,17.38,2.35-3.53,16.12-23.51,24.01-23.51,1.52,0,2.86.76,3.79,2.52.16.25.16.67.16,1.18,0,2.77-1.52,8.81-1.52,13.1,0,2.01.34,3.61,1.35,4.36.41.25.92.42,1.59.42,2.19,0,5.63-1.68,9.08-3.36,5.87-2.85,12.51-7.72,17.79-12.67.34-.33.68-.51,1.09-.51.85,0,1.6.76,1.6,1.68,0,.42-.08.84-.42,1.26-5.54,5.2-12.43,10.33-18.55,13.27-3.45,1.67-6.71,2.68-9.41,2.68-1.59,0-3.02-.42-4.2-1.17-2.26-1.6-2.84-4.62-2.84-7.9,0-4.28,1.08-8.9,1.08-10.91v-.34c-.08-.16-.25-.25-.49-.25-3.87,0-25.61,26.19-27.29,32.74-.26,1.09-.93,1.6-1.52,1.6-.92,0-1.76-.84-1.76-1.85v-.42c.59-7.05,2.27-14.53,5.71-25.18.08-.33.16-.59.16-.92,0-.84-.25-1.76-.25-2.78,0-.59.08-1.18.25-1.76.51-1.51,2.78-3.61,3.2-4.61,7.38-19.65,17.28-45.16,24.42-55.41,1.09-1.67,4.12-5.2,6.73-5.2.67,0,1.34.25,1.93.84.83.83,1.18,2.1,1.18,3.77ZM687.21,28.63c0-.76-.16-1.26-.41-1.59-.34.08-1.76.83-3.2,2.85-5.62,7.81-18.21,41.64-21.31,49.95,8.48-13.09,24.92-43.32,24.92-51.21Z"></path><path class="cls-1" d="M723.6,85.21c0,7.05-11.33,11.59-13.69,12.51,0,.51-.08,1.09-.08,1.68,0,2.02.33,4.37,1.34,5.88,1.09,1.67,2.94,2.43,5.29,2.43,11.58,0,34.75-17.47,34.84-17.55.34-.25.67-.33,1.01-.33,1.09,0,2.01,1,2.01,2.02,0,.42-.25.83-.67,1.18-.16.08-22.75,16.36-36.52,16.36-3.61,0-6.63-1.09-8.48-3.94-1.6-2.35-2.19-4.87-2.19-7.3,0-4.7,2.35-9.15,5.13-12.43,1.5-1.76,3.19-3.1,4.7-3.94,1.18-.67,2.26-1,3.35-1,.59,0,1.18.08,1.68.33,1.18.5,2.01,1.59,2.19,3.19,0,.33.08.59.08.92ZM718.48,85.21c0-.16-.08-.25-.25-.25-1.68.25-3.28,3.36-7.14,8.39,5.37-4.62,7.38-7.39,7.38-8.15Z"></path><path class="cls-2" d="M727.95,125.67c1.94.21,3.09,1.18,3.29,2.78.01.74-.14.87-1.28.77-6.47-.61-12.77-.61-19.22-.24-4.84.34-10,.69-14.83,1.16-6.61.75-13.05,1.5-19.49,2.37-7.74.77-15.47,1.79-23.03,3.06-10.14,1.44-20.29,3.12-30.59,4.69-10.14,1.69-20.28,3.62-30.4,6.17-1.29.27-2.57.67-4.18,1.2-.48.26-.8.14-1.45-.09-.17-.37-.5-.61-.99-.85-.33-.61-.19-1.23.62-1.5,1.12-.64,2.24-1.03,3.36-1.55,4.81-1.58,10.11-3.05,15.26-4.26,8.68-2.03,17.53-3.69,26.55-4.98,9.82-1.56,19.81-2.99,29.79-4.18,8.05-1.27,16.27-2.05,24.49-2.96,6.77-.75,13.7-1.26,20.47-1.89,1.94-.16,4.03-.2,6.13-.25,5.16-.1,10.34.04,15.51.56Z"></path><path class="cls-1" d="M70.58,125.62v.45h-24.64v-.45c6.95-.91,9.07-2.87,7.86-7.56l-11.03-44.74c-10.43,6.35-22.22,21.31-29.32,36.88v-.15l-1.96,8.01c-1.21,4.84.45,6.65,7.1,7.56v.45H0v-.45c6.65-.91,8.77-2.42,9.98-7.56L34.16,20.27h2.27l24.18,97.79c1.21,5.14,3.33,6.65,9.98,7.56ZM42.32,71.96l-9.67-39.3L14.66,105.52c6.8-14.21,17.38-27.21,27.66-33.55Z"></path><path class="cls-1" d="M65.29,73.17c0,29.62,18.74,50.78,44.74,50.78,19.5,0,34.91-9.82,41.56-26.3l1.36.76c-7.1,17.68-22.67,27.66-43.23,27.66-29.93,0-52.75-22.97-52.75-53.05s23.28-54.26,53.35-54.26c8.01,0,15.87,1.97,27.21,6.8,2.42,1.06,4.23,1.66,5.59,1.66,2.72,0,3.93-2.27,5.14-7.56l.76.15-6.05,27.06-.75-.15c1.36-7.1-1.21-13.45-7.56-18.14-6.05-4.54-15.27-7.56-24.03-7.56-27.51,0-45.34,26.6-45.34,52.15Z"></path><path class="cls-1" d="M157.56,73.17c0,29.62,18.74,50.78,44.74,50.78,19.5,0,34.91-9.82,41.57-26.3l1.36.76c-7.1,17.68-22.67,27.66-43.23,27.66-29.93,0-52.75-22.97-52.75-53.05s23.28-54.26,53.35-54.26c8.01,0,15.87,1.97,27.21,6.8,2.42,1.06,4.23,1.66,5.59,1.66,2.72,0,3.93-2.27,5.14-7.56l.76.15-6.05,27.06-.75-.15c1.36-7.1-1.21-13.45-7.56-18.14-6.05-4.54-15.27-7.56-24.03-7.56-27.51,0-45.34,26.6-45.34,52.15Z"></path><path class="cls-1" d="M296.68,18.76c29.32,0,53.36,24.34,53.36,54.26s-24.03,54.56-53.36,54.56c-29.77,0-53.81-24.33-53.81-54.56s24.03-54.26,53.81-54.26ZM296.53,126.07c28.11,0,51.24-23.73,51.24-53.05s-23.13-52.75-51.24-52.75-51.39,23.73-51.39,52.75,23.12,53.05,51.39,53.05Z"></path><path class="cls-1" d="M435.58,125.62v.45h-24.64v-.45c7.1-.91,9.37-2.87,8.46-7.56l-15.27-81.32-16.78,89.33h-2.27l-16.93-89.33-15.27,81.32c-.91,4.84.91,6.65,7.71,7.56v.45h-18.59v-.45c6.5-.91,8.46-2.42,9.37-7.56l18.29-97.79h2.27l16.93,89.63,16.78-89.63h2.27l18.29,97.79c.91,5.14,2.87,6.65,9.37,7.56Z"></path><path class="cls-1" d="M451.29,58.21v59.85c0,4.38,2.27,6.65,8.77,7.56v.45h-24.49v-.45c6.8-.91,8.92-2.72,8.92-7.56V28.28c0-4.84-2.12-6.65-8.92-7.56v-.45h29.17c14.21,0,24.18,6.65,24.18,16.32,0,7.86-7.26,14.21-17.83,16.78l-19.8,4.84ZM451.29,56.7l11.34-3.17c11.18-3.17,18.74-7.71,18.74-16.93s-7.1-14.81-18.74-14.81h-3.78c-4.99,0-7.56,2.42-7.56,7.56v27.36Z"></path><path class="cls-1" d="M520.21,124.56c8.77,0,12.7-4.08,12.7-13.15v-6.95h.75v21.61h-50.79v-.45c6.8-.91,8.92-2.72,8.92-7.56V28.28c0-4.84-2.12-6.65-8.92-7.56v-.45h24.64v.45c-6.8.91-8.92,2.72-8.92,7.56v88.72c0,4.99,2.57,7.56,7.56,7.56h14.06Z"></path><path class="cls-1" d="M533.66,125.62c6.8-.91,8.92-2.72,8.92-7.56V28.28c0-4.84-2.12-6.65-8.92-7.56v-.45h24.64v.45c-6.8.91-8.92,2.72-8.92,7.56v89.78c0,4.84,2.12,6.65,8.92,7.56v.45h-24.64v-.45Z"></path></g></svg>