<svg xmlns="http://www.w3.org/2000/svg" id="Layer_2" data-name="Layer 2" viewBox="0 0 553.87 147.85"><defs><style> .cls-1 { fill: #fbf6ea; } </style></defs><g id="Layer_1-2" data-name="Layer 1"><g><path class="cls-1" d="M13.92,34.94v53.01c0,3.88,2.01,5.89,7.76,6.69v.4H0v-.4c6.02-.8,7.9-2.41,7.9-6.69V8.43C7.9,4.15,6.02,2.54,0,1.74v-.4h25.84c12.58,0,21.42,5.89,21.42,14.46,0,6.96-6.43,12.58-15.8,14.86l-17.54,4.28ZM13.92,33.6l10.04-2.81c9.91-2.81,16.6-6.83,16.6-14.99S34.27,2.68,23.96,2.68h-3.35c-4.42,0-6.69,2.14-6.69,6.69v24.23Z"></path><path class="cls-1" d="M91.56,94.64c6.02-.8,7.9-2.54,7.9-7.23V2.68h-9.1c-8.57,0-11.24,2.81-11.24,11.65v6.16h-.67V1.34h48.06v19.14h-.67v-6.16c0-9.5-3.35-11.65-11.24-11.65h-9.1v85.27c0,4.28,1.87,5.89,7.9,6.69v.4h-21.82v-.4Z"></path><path class="cls-1" d="M139.61,94.64c6.02-.8,7.9-2.54,7.9-7.23V2.68h-9.1c-8.57,0-11.24,2.81-11.24,11.65v6.16h-.67V1.34h48.06v19.14h-.67v-6.16c0-9.5-3.35-11.65-11.24-11.65h-9.1v85.27c0,4.28,1.87,5.89,7.9,6.69v.4h-21.82v-.4Z"></path><path class="cls-1" d="M176.14,94.64c6.02-.8,7.9-2.41,7.9-6.69V8.43c0-4.28-1.87-5.89-7.9-6.69v-.4h21.82v.4c-6.02.8-7.9,2.41-7.9,6.69v79.51c0,4.28,1.87,5.89,7.9,6.69v.4h-21.82v-.4Z"></path><path class="cls-1" d="M231.03,93.7c7.76,0,11.24-3.61,11.24-11.65v-6.16h.67v19.14h-47.66v-.4c6.02-.8,7.9-2.41,7.9-6.69V8.43c0-4.28-1.87-5.89-7.9-6.69v-.4h44.98v19.14h-.67v-6.16c0-9.5-3.35-11.65-11.24-11.65h-12.45c-4.42,0-6.69,2.14-6.69,6.69v24.23l9.91-1.21c7.63-.94,9.64-4.15,13.65-13.65l.4.13-5.35,23.96-.4-.13c1.47-8.7-.13-9.91-8.3-8.97l-9.91,1.21v52.07c0,4.55,2.14,6.69,6.69,6.69h15.13Z"></path><path class="cls-1" d="M304.11,93.7c7.76,0,11.24-3.61,11.24-11.65v-6.16h.67v19.14h-47.66v-.4c6.02-.8,7.9-2.41,7.9-6.69V8.43c0-4.28-1.87-5.89-7.9-6.69v-.4h44.98v19.14h-.67v-6.16c0-9.5-3.35-11.65-11.24-11.65h-12.45c-4.42,0-6.69,2.14-6.69,6.69v24.23l9.91-1.21c7.63-.94,9.64-4.15,13.65-13.65l.4.13-5.35,23.96-.4-.13c1.47-8.7-.13-9.91-8.3-8.97l-9.91,1.21v52.07c0,4.55,2.14,6.69,6.69,6.69h15.13Z"></path><path class="cls-1" d="M317.49,94.64c6.02-.8,7.9-2.41,7.9-6.69V8.43c0-4.28-1.87-5.89-7.9-6.69v-.4h21.82v.4c-6.02.8-7.9,2.41-7.9,6.69v25.17l27.84-3.48V8.43c0-4.28-1.87-5.89-7.9-6.69v-.4h21.82v.4c-6.02.8-7.9,2.41-7.9,6.69v79.51c0,4.28,1.87,5.89,7.9,6.69v.4h-21.82v-.4c6.02-.8,7.9-2.41,7.9-6.69V31.46l-27.84,3.48v53.01c0,4.28,1.87,5.89,7.9,6.69v.4h-21.82v-.4Z"></path><path class="cls-1" d="M423.24,73.36c0-10.98-5.76-17.4-24.36-26.37-12.85-6.16-25.97-13.39-25.97-27.31,0-11.38,11.38-19.68,27.31-19.68,8.17,0,19.01,3.75,26.77,9.1l-3.35,15.26-.4-.13c1.34-9.5-.27-13.79-5.89-17.67-4.02-2.81-9.5-4.55-14.59-4.55-13.39,0-22.49,7.9-22.49,19.14,0,7.36,5.89,12.45,22.49,20.61,20.75,10.17,27.84,17.4,27.84,28.51,0,14.99-13.65,26.1-27.84,26.1-11.11,0-18.34-2.28-31.06-9.64l3.75-16.6.4.13c-2.01,13.12.27,17.4,11.38,21.69,4.15,1.61,8.57,2.41,12.58,2.41,11.51,0,23.43-9.37,23.43-21.02Z"></path><path class="cls-1" d="M518.58,93.7c7.76,0,11.24-3.61,11.24-11.65v-6.16h.67v19.14h-47.66s0-.4,0-.4c6.02-.8,7.9-2.41,7.9-6.69V8.43c0-4.28-1.87-5.89-7.9-6.69v-.4h44.98v19.14h-.67v-6.16c0-9.5-3.35-11.65-11.24-11.65h-12.45c-4.42,0-6.69,2.14-6.69,6.69v24.23l9.91-1.21c7.63-.94,9.64-4.15,13.65-13.65l.4.13-5.35,23.96-.4-.13c1.47-8.7-.13-9.91-8.3-8.97l-9.91,1.21v52.07c0,4.55,2.14,6.69,6.69,6.69h15.13Z"></path><path class="cls-1" d="M532.05,94.64c6.02-.8,7.9-2.41,7.9-6.69V8.43c0-4.28-1.87-5.89-7.9-6.69v-.4h21.82v.4c-6.02.8-7.9,2.41-7.9,6.69v79.51c0,4.28,1.87,5.89,7.9,6.69v.4h-21.82v-.4Z"></path><path class="cls-1" d="M485.29,94.61v.4h-21.82s0-.4,0-.4c6.16-.8,8.03-2.54,6.96-6.69l-9.77-39.62c-9.23,5.62-19.68,18.87-25.97,32.66v-.13l-1.74,7.09c-1.07,4.28.4,5.89,6.29,6.69v.4h-16.46v-.4c5.89-.8,7.77-2.14,8.83-6.69L453.04,1.31h2.01l21.42,86.6c1.07,4.55,2.94,5.89,8.83,6.69ZM460.26,47.09l-8.56-34.8-15.93,64.52c6.02-12.58,15.39-24.09,24.49-29.72Z"></path><path class="cls-1" d="M89.75,94.61v.4h-21.82s0-.4,0-.4c6.16-.8,8.03-2.54,6.96-6.69l-9.77-39.62c-9.23,5.62-19.68,18.87-25.97,32.66v-.13l-1.74,7.09c-1.07,4.28.4,5.89,6.29,6.69v.4h-16.46v-.4c5.89-.8,7.77-2.14,8.83-6.69L57.49,1.31h2.01l21.42,86.6c1.07,4.55,2.94,5.89,8.83,6.69ZM64.72,47.09l-8.56-34.8-15.93,64.52c6.02-12.58,15.39-24.09,24.49-29.72Z"></path></g><g><path class="cls-1" d="M87.62,135.12h-4.67l-.33,1.44h5.31l-.31-1.44ZM85.25,128.52l-4.92,10.63h1.91l1.14-2.59.25-.56.02-.38.22-.5,1.37-3.2,1.37,3.2.23.54.03.42.21.48,1.15,2.59h1.93l-4.93-10.63Z"></path><path class="cls-1" d="M105.4,131c.52-.29,1.09-.43,1.69-.43.48,0,.91.06,1.3.18.38.13.73.3,1.04.51.3.22.58.46.8.73v-2.01c-.41-.35-.86-.62-1.36-.8-.49-.18-1.1-.28-1.84-.28s-1.42.13-2.06.38c-.63.25-1.19.61-1.66,1.08-.47.47-.83,1.02-1.09,1.65-.27.63-.4,1.34-.4,2.1s.13,1.45.4,2.1c.26.63.63,1.19,1.09,1.65.48.48,1.03.83,1.66,1.08.64.25,1.33.38,2.06.38s1.35-.09,1.84-.27c.5-.18.95-.45,1.36-.79v-2.03c-.23.28-.5.53-.8.74-.31.22-.66.38-1.04.51-.39.13-.83.18-1.3.18-.61,0-1.18-.15-1.69-.44-.52-.3-.94-.71-1.26-1.24-.32-.53-.48-1.15-.48-1.86s.16-1.34.48-1.88c.33-.53.74-.94,1.26-1.24Z"></path><path class="cls-1" d="M126.82,131c.52-.29,1.09-.43,1.7-.43.48,0,.91.06,1.29.18.39.13.73.3,1.04.51.31.22.58.46.81.73v-2.01c-.42-.35-.87-.62-1.36-.8-.49-.18-1.11-.28-1.84-.28s-1.43.13-2.06.38c-.64.25-1.19.61-1.66,1.08s-.83,1.02-1.1,1.65c-.26.63-.39,1.34-.39,2.1s.13,1.45.39,2.1c.27.63.63,1.19,1.1,1.65.47.48,1.02.83,1.66,1.08.63.25,1.32.38,2.06.38s1.35-.09,1.84-.27c.49-.18.94-.45,1.36-.79v-2.03c-.23.28-.5.53-.81.74-.31.22-.65.38-1.04.51-.38.13-.82.18-1.29.18-.62,0-1.19-.15-1.7-.44-.51-.3-.94-.71-1.25-1.24-.32-.53-.48-1.15-.48-1.86s.17-1.34.48-1.88c.32-.53.74-.94,1.25-1.24Z"></path><path class="cls-1" d="M154.73,132.03c-.26-.63-.62-1.18-1.09-1.64-.48-.46-1.03-.83-1.66-1.09-.63-.27-1.33-.4-2.09-.4s-1.42.13-2.06.4c-.63.26-1.19.63-1.66,1.09-.48.47-.84,1.02-1.1,1.64-.26.63-.39,1.33-.39,2.09s.13,1.44.39,2.09c.26.64.62,1.19,1.09,1.66.47.48,1.02.83,1.66,1.1.63.27,1.33.39,2.07.39s1.47-.13,2.1-.39c.63-.27,1.18-.63,1.65-1.1s.83-1.02,1.09-1.66.39-1.34.39-2.09-.13-1.45-.39-2.09ZM152.87,135.95c-.29.54-.7.96-1.21,1.28-.52.31-1.1.47-1.78.47s-1.24-.16-1.76-.47c-.51-.32-.91-.73-1.21-1.28-.3-.53-.44-1.14-.44-1.84s.14-1.3.44-1.84c.3-.54.7-.97,1.21-1.28.52-.3,1.1-.46,1.76-.46s1.28.16,1.79.46c.51.31.91.73,1.19,1.28.29.54.43,1.15.43,1.84s-.15,1.3-.43,1.84Z"></path><path class="cls-1" d="M177.35,128.58l-4.14,6.83-4.12-6.83-1.38,10.57h1.75l.68-6.13,3.06,5.19,3.07-5.19.69,6.13h1.75l-1.38-10.57Z"></path><path class="cls-1" d="M198.09,130.54c-.31-.46-.73-.82-1.26-1.08-.53-.25-1.18-.38-1.91-.38h-2.03v1.49h2.03c.58,0,1.05.13,1.41.41.35.27.53.68.53,1.21s-.18.94-.53,1.22c-.36.28-.83.42-1.41.42h-2.03v1.49h2.03c.73,0,1.38-.13,1.91-.38.53-.26.95-.62,1.26-1.09.3-.47.45-1.03.45-1.67s-.15-1.19-.45-1.66ZM191.89,129.09v10.06h1.69v-10.06h-1.69Z"></path><path class="cls-1" d="M213.39,137.62v-8.53h-1.69v10.06h5.69v-1.53h-4Z"></path><path class="cls-1" d="M230.1,129.09v10.06h1.73v-10.06h-1.73Z"></path><path class="cls-1" d="M294.02,133.12v1.49h4.35v-1.49h-4.35ZM294.02,129.09v1.52h4.5v-1.52h-4.5ZM292.97,129.09v10.06h1.67v-10.06h-1.67Z"></path><path class="cls-1" d="M313,137.65v1.49h5.08v-1.49h-5.08ZM313,133.02v1.47h4.78v-1.47h-4.78ZM313,129.09v1.49h5.08v-1.49h-5.08ZM311.95,129.09v10.06h1.67v-10.06h-1.67Z"></path><path class="cls-1" d="M337.86,135.12h-4.67l-.33,1.44h5.31l-.31-1.44ZM335.49,128.52l-4.92,10.63h1.91l1.14-2.59.25-.56.03-.38.22-.5,1.37-3.2,1.37,3.2.23.54.03.42.21.48,1.15,2.59h1.93l-4.93-10.63Z"></path><path class="cls-1" d="M357.54,135.15l-.57-.8h-1.83l.66.99,2.54,3.82h2.05l-2.86-4ZM359.34,130.56c-.3-.47-.72-.83-1.25-1.09-.54-.26-1.18-.38-1.91-.38h-2.1v1.46h2.03c.39,0,.73.07,1.02.2.29.13.52.33.68.58.17.25.24.56.24.92s-.08.66-.24.92c-.16.25-.38.44-.68.57-.28.13-.63.2-1.02.2h-2.03v1.4h2.1c.5,0,.96-.06,1.37-.18.19-.05.37-.12.54-.2.53-.26.95-.63,1.25-1.09.3-.47.45-1.02.45-1.65s-.15-1.18-.45-1.64ZM353.07,129.09v10.06h1.69v-10.06h-1.69Z"></path><path class="cls-1" d="M374.8,137.62v-8.53h-1.69v10.06h5.69v-1.53h-4Z"></path><path class="cls-1" d="M392.57,137.65v1.49h5.08v-1.49h-5.08ZM392.57,133.02v1.47h4.78v-1.47h-4.78ZM392.57,129.09v1.49h5.08v-1.49h-5.08ZM391.52,129.09v10.06h1.67v-10.06h-1.67Z"></path><path class="cls-1" d="M417.59,135.2c-.16-.33-.36-.62-.6-.85-.24-.24-.52-.44-.82-.61-.3-.16-.61-.29-.91-.4-.53-.19-.98-.38-1.31-.56-.33-.18-.58-.38-.74-.58-.15-.2-.23-.43-.23-.69,0-.29.11-.54.33-.76.22-.21.56-.32,1.04-.32.33,0,.63.06.88.19.26.13.48.3.68.52.18.22.35.45.48.69l1.37-.78c-.17-.35-.4-.69-.71-1.02-.3-.33-.68-.59-1.12-.81-.44-.22-.96-.33-1.55-.33s-1.14.12-1.62.34c-.47.23-.84.55-1.13.96-.28.41-.42.88-.42,1.42,0,.47.09.87.28,1.19.18.33.41.61.69.83.28.23.57.41.88.56.3.15.58.27.83.35.42.16.79.31,1.12.47.33.16.58.35.75.58.18.23.27.52.27.88,0,.4-.14.73-.43.98-.28.25-.66.38-1.12.38-.38,0-.72-.08-1.03-.24-.31-.17-.59-.39-.85-.68-.25-.29-.48-.63-.71-1.02l-1.26.88c.22.46.52.88.89,1.28.38.39.82.71,1.33.94.5.23,1.04.35,1.63.35.43,0,.84-.07,1.24-.21.4-.13.75-.33,1.07-.58.32-.26.57-.57.76-.94.18-.38.28-.79.28-1.26,0-.44-.08-.83-.23-1.16Z"></path><path class="cls-1" d="M437.41,135.2c-.16-.33-.36-.62-.6-.85-.24-.24-.52-.44-.82-.61-.3-.16-.61-.29-.91-.4-.53-.19-.98-.38-1.31-.56-.33-.18-.58-.38-.74-.58-.15-.2-.23-.43-.23-.69,0-.29.11-.54.33-.76.22-.21.56-.32,1.04-.32.33,0,.63.06.88.19.26.13.48.3.68.52.18.22.35.45.48.69l1.37-.78c-.17-.35-.4-.69-.71-1.02-.3-.33-.68-.59-1.12-.81-.44-.22-.96-.33-1.55-.33s-1.14.12-1.62.34c-.47.23-.84.55-1.13.96-.28.41-.42.88-.42,1.42,0,.47.09.87.28,1.19.18.33.41.61.69.83.28.23.57.41.88.56.3.15.58.27.83.35.42.16.79.31,1.12.47.33.16.58.35.75.58s.27.52.27.88c0,.4-.14.73-.43.98-.28.25-.66.38-1.12.38-.38,0-.72-.08-1.03-.24-.31-.17-.59-.39-.85-.68-.25-.29-.48-.63-.71-1.02l-1.26.88c.22.46.52.88.89,1.28.38.39.82.71,1.33.94.5.23,1.04.35,1.63.35.43,0,.84-.07,1.24-.21.4-.13.75-.33,1.07-.58.32-.26.57-.57.76-.94.18-.38.28-.79.28-1.26,0-.44-.08-.83-.23-1.16Z"></path><path class="cls-1" d="M452.55,137.62v-8.53h-1.69v10.06h5.69v-1.53h-4Z"></path><path class="cls-1" d="M473.79,129.09l-2.34,4.29-2.33-4.29h-1.95l3.42,5.83v4.23h1.73v-4.24l3.41-5.82h-1.95Z"></path></g><path class="cls-1" d="M275.76,139.98c-1.62-.08-3.23-.08-4.83,0-.65.03-1.31.05-1.91.11-2.1.22-4.26.41-6.36.65-2.55.3-5.11.56-7.61.95-2.9.35-5.79.76-8.64,1.2-.08,0-.16.03-.23.03-.08.02-.16.03-.24.04-.04,0-.09,0-.13.02-.08,0-.17.03-.25.04-.08,0-.17.02-.25.03-.08,0-.17.03-.25.04-1.84.27-3.64.58-5.43.92-.1.02-.2.04-.31.07-.11.02-.21.04-.32.06-.17.03-.33.07-.5.11-.09.02-.19.03-.28.06-.1.02-.19.03-.29.06-.13.03-.24.05-.37.08-1.59.35-3.24.76-4.72,1.19-.35.13-.69.24-1.04.41-.24.08-.29.23-.18.38.16.06.26.11.31.2.21.05.31.08.46,0,.49-.14.89-.25,1.29-.33,1.13-.26,2.25-.5,3.38-.72.08-.03.16-.04.24-.05.08-.02.17-.03.25-.05.13-.03.28-.06.42-.08.08-.02.17-.03.26-.05.09-.02.18-.03.28-.05,1.54-.28,3.07-.55,4.61-.79.23-.03.47-.08.7-.11.12-.02.23-.03.33-.05.12-.02.23-.03.34-.05s.21-.03.31-.05c.1-.02.2-.02.29-.04.1-.02.19-.03.28-.05,2.43-.37,4.83-.74,7.24-1.08,2.35-.38,4.75-.7,7.15-.96,2-.28,4.01-.52,6.06-.76,1.5-.16,3.11-.29,4.62-.42,2-.15,3.97-.21,5.99-.11.35,0,.4-.03.39-.21-.07-.39-.43-.62-1.04-.65Z"></path><polygon class="cls-1" points="255.11 51.8 251.58 48.29 255.1 44.78 258.62 48.29 255.11 51.8"></polygon><g><g><path class="cls-1" d="M256.01,132.77c-.09-.23-.28-.43-.5-.43-.07,0-.13.02-.2.05h0c-.08.03-.18.06-.26.08-.08.03-.15.04-.22.08-3.06,1-6.08,2.88-8.97,4.85-2.31-3.82-8.62-8.62-8.62-13.15,0-2.28,1.59-4.48,6.07-6.46,2.41-1.06,5.66-2.02,7.87-2.02.58,0,1.09.07,1.49.22,1.28.46,1.74,1.44,1.74,2.63,0,3.21-3.37,7.91-3.39,7.92.02.49.33.73.69.73.33,0,.68-.18.88-.52.02-.02,2.66-4.33,2.66-7.74,0-1.62-.59-3.01-2.35-3.65-.64-.23-1.42-.35-2.26-.35-1.92,0-4.25.56-6.45,1.54-5.74,2.53-7.72,5.09-7.72,7.66,0,4.48,6.1,9.02,8.85,13.57-1.53,1.08-5.1,4.13-7.1,6.54-.37.43-.68.85-.93,1.23-.15.25-.28.48-.37.68-.12.28-.18.52-.18.72,0,.43.28.69.88.73h.1c1.84,0,5.22-1.41,7.36-3.46.43-.41.8-.83,1.1-1.29.54-.79.88-1.64.88-2.52,0-.71-.22-1.42-.69-2.15,2.63-1.8,5.56-3.45,8.38-4.47.07-.03.14-.05.21-.08.08-.03.14-.05.22-.07h0c.21-.08.42-.15.63-.21.04-.02.09-.03.13-.04.05-.04.08-.1.12-.16.02-.06.03-.13.03-.19,0-.09-.02-.19-.06-.28ZM238.08,147.05c-.15,0-.29-.03-.44-.03-.13-.02-.2-.08-.2-.22,0-.08.03-.2.08-.32.14-.34.38-.72.68-1.12.31-.4.68-.83,1.1-1.27,2-2.11,5.04-4.44,6.48-5.45.32.6.45,1.19.45,1.77,0,.93-.36,1.84-.94,2.65-.33.46-.73.89-1.17,1.29-1.79,1.61-4.33,2.69-6.04,2.69Z"></path><path class="cls-1" d="M245.95,138.56l-.1-.18-.17.12c-1.34.94-4.62,3.44-6.7,5.66-.4.43-.76.86-1.04,1.26-.26.35-.46.68-.59.99-.03.08-.1.25-.1.39,0,.22.13.37.39.4.15.02.29.03.43.03,1.91,0,4.58-1.19,6.39-2.92.41-.4.78-.83,1.08-1.28.54-.82.88-1.7.88-2.62,0-.64-.16-1.27-.47-1.85ZM237.62,146.79s.02-.13.07-.24c.16-.38.43-.79.79-1.24.32-.41.71-.84,1.14-1.29,1.95-2,4.77-4.16,6.1-5.11.23.48.33.99.33,1.49,0,.96-.39,1.88-1.01,2.7-.35.47-.78.9-1.25,1.3-1.76,1.49-4.16,2.45-5.71,2.45-.13,0-.26-.02-.43-.03l-.02.18-.02-.22ZM245.95,138.56l-.1-.18-.17.12c-1.34.94-4.62,3.44-6.7,5.66-.4.43-.76.86-1.04,1.26-.26.35-.46.68-.59.99-.03.08-.1.25-.1.39,0,.22.13.37.39.4.15.02.29.03.43.03,1.91,0,4.58-1.19,6.39-2.92.41-.4.78-.83,1.08-1.28.54-.82.88-1.7.88-2.62,0-.64-.16-1.27-.47-1.85ZM237.62,146.79s.02-.13.07-.24c.16-.38.43-.79.79-1.24.32-.41.71-.84,1.14-1.29,1.95-2,4.77-4.16,6.1-5.11.23.48.33.99.33,1.49,0,.96-.39,1.88-1.01,2.7-.35.47-.78.9-1.25,1.3-1.76,1.49-4.16,2.45-5.71,2.45-.13,0-.26-.02-.43-.03l-.02.18-.02-.22ZM245.95,138.56l-.1-.18-.17.12c-1.34.94-4.62,3.44-6.7,5.66-.4.43-.76.86-1.04,1.26-.26.35-.46.68-.59.99-.03.08-.1.25-.1.39,0,.22.13.37.39.4.15.02.29.03.43.03,1.91,0,4.58-1.19,6.39-2.92.41-.4.78-.83,1.08-1.28.54-.82.88-1.7.88-2.62,0-.64-.16-1.27-.47-1.85ZM237.62,146.79s.02-.13.07-.24c.16-.38.43-.79.79-1.24.32-.41.71-.84,1.14-1.29,1.95-2,4.77-4.16,6.1-5.11.23.48.33.99.33,1.49,0,.96-.39,1.88-1.01,2.7-.35.47-.78.9-1.25,1.3-1.76,1.49-4.16,2.45-5.71,2.45-.13,0-.26-.02-.43-.03l-.02.18-.02-.22ZM245.95,138.56l-.1-.18-.17.12c-1.34.94-4.62,3.44-6.7,5.66-.4.43-.76.86-1.04,1.26-.26.35-.46.68-.59.99-.03.08-.1.25-.1.39,0,.22.13.37.39.4.15.02.29.03.43.03,1.91,0,4.58-1.19,6.39-2.92.41-.4.78-.83,1.08-1.28.54-.82.88-1.7.88-2.62,0-.64-.16-1.27-.47-1.85ZM237.62,146.79s.02-.13.07-.24c.16-.38.43-.79.79-1.24.32-.41.71-.84,1.14-1.29,1.95-2,4.77-4.16,6.1-5.11.23.48.33.99.33,1.49,0,.96-.39,1.88-1.01,2.7-.35.47-.78.9-1.25,1.3-1.76,1.49-4.16,2.45-5.71,2.45-.13,0-.26-.02-.43-.03l-.02.18-.02-.22ZM256.2,132.76c-.03-.08-.06-.16-.11-.23-.13-.22-.34-.38-.58-.38h-.03c-.08,0-.17.03-.23.06-.03,0-.04.02-.07.03-.09.03-.19.05-.28.08-3.11.99-6.15,2.89-9,4.82-.79-1.27-2-2.62-3.26-4.05-2.45-2.77-5.23-5.92-5.23-8.84,0-2.46,1.95-4.52,5.96-6.29,2.27-.99,5.56-2,7.8-2,.58,0,1.07.07,1.43.21,1.09.39,1.61,1.19,1.61,2.45,0,3.15-3.31,7.76-3.32,7.78l-.07.06v.08c.02.55.37.91.88.91.42,0,.81-.23,1.02-.58.02-.03,2.7-4.37,2.7-7.86,0-1.94-.83-3.22-2.47-3.82-2.09-.75-5.61-.24-8.85,1.19-5.27,2.32-7.83,4.88-7.83,7.82s2.59,5.93,5.08,8.81c1.34,1.54,2.73,3.15,3.71,4.72-1.72,1.24-5.23,4.29-7.15,6.65-.36.44-.66.85-.88,1.22-.13.2-.23.39-.3.57-.13.33-.19.57-.19.78,0,.32.13.86,1.06.91h.1c2.01,0,5.5-1.53,7.65-3.69.41-.4.76-.83,1.05-1.27.52-.79.83-1.63.83-2.49,0-.72-.21-1.4-.63-2.1,2.06-1.39,4.99-3.16,8.06-4.29.08-.03.14-.06.22-.08.08-.03.14-.06.22-.08.21-.08.41-.14.62-.21.08-.03.14-.05.22-.07.02,0,.03,0,.05-.02l.07-.04c.07-.05.12-.13.16-.21.03-.08.05-.18.05-.28s-.02-.19-.05-.29ZM255,133.5c-.07.03-.13.05-.2.08-3.27,1.16-6.41,3.06-8.56,4.53l-.15.1.1.15c.45.68.67,1.35.67,2.05,0,.88-.35,1.75-.94,2.56-.32.45-.71.88-1.15,1.29-2.08,1.91-5.23,3.23-7.07,3.23h-.09c-.63-.03-.7-.33-.7-.54,0-.17.05-.37.17-.64.1-.24.26-.51.45-.81.26-.38.58-.79.96-1.24,1.99-2.33,5.36-5.23,6.93-6.33l.13-.09-.08-.15c-.99-1.65-2.44-3.31-3.83-4.92-2.45-2.83-4.99-5.76-4.99-8.57s2.49-5.23,7.61-7.49c2.18-.97,4.51-1.52,6.38-1.52.83,0,1.59.12,2.2.33,1.5.55,2.23,1.69,2.23,3.48,0,3.36-2.6,7.6-2.63,7.65-.16.26-.43.43-.73.43s-.48-.18-.51-.5c.49-.68,3.39-4.93,3.39-7.96,0-1.41-.63-2.35-1.85-2.8-.4-.15-.92-.23-1.55-.23-2.45,0-5.81,1.09-7.95,2.04-4.16,1.84-6.18,4.01-6.18,6.63,0,3.06,2.83,6.26,5.33,9.08,1.31,1.48,2.54,2.87,3.32,4.16l.1.17.16-.11c2.79-1.9,5.78-3.77,8.83-4.81.06-.02.13-.04.18-.06.07-.03.14-.05.21-.07.07-.03.14-.05.21-.07.04-.02.08-.02.12-.02.18,0,.38.28.38.53,0,.08-.02.14-.06.18-.21.07-.43.13-.63.2-.07.03-.13.05-.19.07ZM245.85,138.37l-.17.12c-1.34.94-4.62,3.44-6.7,5.66-.4.43-.76.86-1.04,1.26-.26.35-.46.68-.59.99-.03.08-.1.25-.1.39,0,.22.13.37.39.4.15.02.29.03.43.03,1.91,0,4.58-1.19,6.39-2.92.41-.4.78-.83,1.08-1.28.54-.82.88-1.7.88-2.62,0-.64-.16-1.27-.47-1.85l-.1-.18ZM237.62,146.79s.02-.13.07-.24c.16-.38.43-.79.79-1.24.32-.41.71-.84,1.14-1.29,1.95-2,4.77-4.16,6.1-5.11.23.48.33.99.33,1.49,0,.96-.39,1.88-1.01,2.7-.35.47-.78.9-1.25,1.3-1.76,1.49-4.16,2.45-5.71,2.45-.13,0-.26-.02-.43-.03l-.02.18-.02-.22ZM245.95,138.56l-.1-.18-.17.12c-1.34.94-4.62,3.44-6.7,5.66-.4.43-.76.86-1.04,1.26-.26.35-.46.68-.59.99-.03.08-.1.25-.1.39,0,.22.13.37.39.4.15.02.29.03.43.03,1.91,0,4.58-1.19,6.39-2.92.41-.4.78-.83,1.08-1.28.54-.82.88-1.7.88-2.62,0-.64-.16-1.27-.47-1.85ZM237.62,146.79s.02-.13.07-.24c.16-.38.43-.79.79-1.24.32-.41.71-.84,1.14-1.29,1.95-2,4.77-4.16,6.1-5.11.23.48.33.99.33,1.49,0,.96-.39,1.88-1.01,2.7-.35.47-.78.9-1.25,1.3-1.76,1.49-4.16,2.45-5.71,2.45-.13,0-.26-.02-.43-.03l-.02.18-.02-.22ZM245.95,138.56l-.1-.18-.17.12c-1.34.94-4.62,3.44-6.7,5.66-.4.43-.76.86-1.04,1.26-.26.35-.46.68-.59.99-.03.08-.1.25-.1.39,0,.22.13.37.39.4.15.02.29.03.43.03,1.91,0,4.58-1.19,6.39-2.92.41-.4.78-.83,1.08-1.28.54-.82.88-1.7.88-2.62,0-.64-.16-1.27-.47-1.85ZM237.62,146.79s.02-.13.07-.24c.16-.38.43-.79.79-1.24.32-.41.71-.84,1.14-1.29,1.95-2,4.77-4.16,6.1-5.11.23.48.33.99.33,1.49,0,.96-.39,1.88-1.01,2.7-.35.47-.78.9-1.25,1.3-1.76,1.49-4.16,2.45-5.71,2.45-.13,0-.26-.02-.43-.03l-.02.18-.02-.22Z"></path></g><g><path class="cls-1" d="M266.41,132.6c-.08,0-.14.03-.21.1-.09.08-.18.18-.28.26-.1.09-.21.18-.32.28-.08.08-.18.15-.27.23-.85.69-1.79,1.33-2.64,1.74-.68.33-1.36.67-1.79.67-.13,0-.23-.03-.32-.08-.2-.15-.27-.47-.27-.86,0-.84.3-2.04.3-2.58,0-.1,0-.18-.03-.23-.18-.35-.44-.49-.74-.49-1.55,0-4.27,3.93-4.72,4.62.24-.91.5-1.73.8-2.65.03-.11.08-.23.11-.35.05-.13.09-.28.14-.43l.03-.06.06-.18c.2,0,6.12-8.97,6.12-11.97,0-.33-.07-.58-.23-.74-.11-.11-.24-.16-.38-.16-.52,0-1.11.69-1.33,1.02-1.4,2.02-3.36,7.05-4.81,10.92-.06.13-.28.36-.44.59-.06.08-.12.16-.15.23-.02.03-.02.05-.03.08-.02.04-.02.09-.03.13,0,.08-.02.14-.02.22,0,.2.05.38.05.55,0,.02,0,.03,0,.05,0,.04-.02.08-.03.13,0,.03-.02.07-.03.09-.03.08-.04.15-.07.23-.61,1.94-.92,3.32-1.03,4.64v.08c0,.2.17.37.35.37.12,0,.24-.1.29-.32.33-1.29,4.62-6.44,5.38-6.44.05,0,.08.02.1.05v.07c0,.39-.22,1.3-.22,2.15,0,.64.12,1.24.56,1.55.23.15.52.23.83.23.53,0,1.17-.2,1.84-.53.72-.35,1.49-.84,2.22-1.41.07-.04.13-.09.19-.14.07-.05.13-.1.19-.15.34-.28.68-.57.99-.86.04-.05.08-.1.11-.14.03-.05.03-.11.03-.16,0-.18-.15-.33-.32-.33ZM261.61,120.65c0,1.56-3.24,7.51-4.91,10.09.61-1.64,3.09-8.31,4.2-9.84.28-.39.56-.54.63-.56.05.07.08.17.08.31Z"></path><path class="cls-1" d="M261.67,120.23l-.08-.1-.12.03c-.13.03-.45.23-.73.63-.73,1.02-2.14,4.31-4.18,9.78l-.63,1.68.91-1.41c1.48-2.29,4.94-8.5,4.94-10.19,0-.18-.04-.32-.12-.42ZM261.42,120.61v.04c0,1.24-2.17,5.45-3.87,8.35,1.69-4.42,2.86-7.11,3.5-7.99.13-.2.28-.33.38-.4ZM261.67,120.23l-.08-.1-.12.03c-.13.03-.45.23-.73.63-.73,1.02-2.14,4.31-4.18,9.78l-.63,1.68.91-1.41c1.48-2.29,4.94-8.5,4.94-10.19,0-.18-.04-.32-.12-.42ZM261.42,120.61v.04c0,1.24-2.17,5.45-3.87,8.35,1.69-4.42,2.86-7.11,3.5-7.99.13-.2.28-.33.38-.4ZM261.67,120.23l-.08-.1-.12.03c-.13.03-.45.23-.73.63-.73,1.02-2.14,4.31-4.18,9.78l-.63,1.68.91-1.41c1.48-2.29,4.94-8.5,4.94-10.19,0-.18-.04-.32-.12-.42ZM261.42,120.61v.04c0,1.24-2.17,5.45-3.87,8.35,1.69-4.42,2.86-7.11,3.5-7.99.13-.2.28-.33.38-.4ZM261.67,120.23l-.08-.1-.12.03c-.13.03-.45.23-.73.63-.73,1.02-2.14,4.31-4.18,9.78l-.63,1.68.91-1.41c1.48-2.29,4.94-8.5,4.94-10.19,0-.18-.04-.32-.12-.42ZM261.42,120.61v.04c0,1.24-2.17,5.45-3.87,8.35,1.69-4.42,2.86-7.11,3.5-7.99.13-.2.28-.33.38-.4ZM266.59,133.24s.08-.1.11-.14c.08-.09.13-.18.21-.27-.05-.23-.25-.41-.49-.41-.08,0-.14.02-.21.05-.04.03-.08.06-.13.1-.1.09-.2.18-.3.27-.11.1-.22.2-.33.28-.94.8-1.95,1.49-2.84,1.92-.64.31-1.32.64-1.7.64-.08,0-.16-.02-.21-.05-.13-.09-.19-.33-.19-.71,0-.46.09-1.03.18-1.53.07-.43.13-.79.13-1.05,0-.13,0-.24-.05-.32-.26-.49-.64-.59-.91-.59-1.29,0-3.21,2.38-4.25,3.8.18-.61.38-1.22.6-1.9.05-.14.1-.29.15-.44l.08-.23c.73-.76,3.1-4.79,3.12-4.83,1.37-2.39,3.01-5.58,3.01-7.2,0-.39-.09-.68-.28-.87-.14-.14-.32-.22-.51-.22-.74,0-1.47,1.09-1.48,1.1-1.36,1.96-3.21,6.64-4.83,10.94-.03.06-.13.18-.23.3-.12.14-.24.29-.33.45-.03.06-.06.12-.08.18,0,.02,0,.03,0,.05-.03.07-.03.13-.03.19-.02.05-.02.11-.02.16,0,.12.02.22.02.33.02.08.03.15.03.23,0,.03,0,.05-.03.13-.02.08-.05.14-.07.22-.03.08-.05.15-.08.23-.58,1.86-.88,3.25-.99,4.57v.08c0,.3.24.55.53.55.17,0,.39-.12.48-.45.33-1.32,4.25-5.9,5.11-6.29-.02.15-.04.35-.08.58-.06.43-.14.97-.14,1.48,0,.54.07,1.3.65,1.71.68.43,1.64.3,2.85-.28.68-.33,1.42-.79,2.16-1.35.06-.04.12-.08.17-.13.06-.05.12-.09.18-.14h0c.41-.33.82-.68,1.21-1.04.05-.07.08-.13.1-.2-.17.15-.36.32-.57.49.1-.13.19-.25.27-.36ZM262.92,135.63c-1.08.53-1.95.66-2.5.31-.33-.23-.48-.68-.48-1.4,0-.48.08-1,.13-1.42.04-.3.08-.55.08-.73v-.07l-.02-.08c-.05-.1-.15-.15-.27-.15-.92,0-5.23,5.34-5.55,6.59-.03.13-.09.18-.12.18-.08,0-.17-.08-.17-.18v-.07c.11-1.33.43-2.74,1.06-4.73.02-.08.04-.14.07-.22h0c.02-.07.03-.13.03-.2v-.02c0-.08-.02-.18-.03-.26-.02-.09-.03-.18-.03-.28s.02-.19.04-.28h0c.02-.07.07-.14.12-.23.06-.08.13-.16.18-.23.02-.02.03-.03.04-.05.13-.15.23-.28.28-.4,1.61-4.29,3.45-8.94,4.79-10.88.25-.39.78-.94,1.17-.94.09,0,.18.03.25.11.12.12.18.32.18.61,0,2.85-5.46,11.15-6,11.8h-.06l-.04.13-.08.23v.02c-.08.23-.16.45-.23.66-.03.08-.05.15-.08.22-.28.88-.53,1.66-.77,2.53l-.29,1.09.63-.94c1.35-2.04,4.31-5.75,5.16-4.14,0,.03,0,.09,0,.14,0,.23-.06.6-.12.99-.08.52-.18,1.1-.18,1.59,0,.51.11.83.36,1.01.12.08.25.12.41.12.48,0,1.15-.33,1.87-.68.78-.38,1.66-.95,2.5-1.62.08-.07.15-.13.23-.18.09-.08.18-.14.26-.22.19-.17.38-.33.57-.51.05-.05.08-.05.08-.05.07,0,.13.07.13.15,0,.06,0,.09-.03.12-.28.27-.58.53-.89.78-.07.06-.13.12-.21.17-.06.06-.13.11-.19.16-.79.62-1.6,1.14-2.31,1.48ZM261.79,120.65c0-.18-.04-.32-.12-.42l-.08-.1-.12.03c-.13.03-.45.23-.73.63-.73,1.02-2.14,4.31-4.18,9.78l-.63,1.68.91-1.41c1.48-2.29,4.94-8.5,4.94-10.19ZM261.42,120.61v.04c0,1.24-2.17,5.45-3.87,8.35,1.69-4.42,2.86-7.11,3.5-7.99.13-.2.28-.33.38-.4ZM261.67,120.23l-.08-.1-.12.03c-.13.03-.45.23-.73.63-.73,1.02-2.14,4.31-4.18,9.78l-.63,1.68.91-1.41c1.48-2.29,4.94-8.5,4.94-10.19,0-.18-.04-.32-.12-.42ZM261.42,120.61v.04c0,1.24-2.17,5.45-3.87,8.35,1.69-4.42,2.86-7.11,3.5-7.99.13-.2.28-.33.38-.4ZM261.67,120.23l-.08-.1-.12.03c-.13.03-.45.23-.73.63-.73,1.02-2.14,4.31-4.18,9.78l-.63,1.68.91-1.41c1.48-2.29,4.94-8.5,4.94-10.19,0-.18-.04-.32-.12-.42ZM261.42,120.61v.04c0,1.24-2.17,5.45-3.87,8.35,1.69-4.42,2.86-7.11,3.5-7.99.13-.2.28-.33.38-.4Z"></path></g><g><path class="cls-1" d="M274.43,132.7c-.07,0-.13.02-.2.07-.02.02-4.58,3.46-6.86,3.46-.46,0-.83-.15-1.04-.48-.19-.3-.26-.76-.26-1.16,0-.12.02-.23.02-.33.46-.18,2.7-1.07,2.7-2.46,0-.07-.02-.12-.02-.18-.04-.32-.2-.53-.43-.63-.1-.05-.22-.07-.33-.07-.21,0-.43.07-.66.2-.29.17-.63.43-.93.78-.23.28-.45.59-.63.94-.07.13-.13.26-.18.4-.04.11-.08.22-.1.33-.04.14-.07.28-.08.43-.02.08-.02.17-.02.25,0,.03,0,.06,0,.09,0,.05,0,.1,0,.15.02.43.14.88.43,1.29.37.56.96.78,1.67.78,2.71,0,7.16-3.21,7.2-3.22.08-.07.13-.15.13-.23,0-.2-.18-.4-.39-.4ZM266.59,133.24s.08-.1.11-.14c.08-.09.13-.18.21-.27.49-.69.78-1.11,1.08-1.15.03,0,.06.02.06.06,0,.14-.33.6-1.15,1.37-.17.15-.36.32-.57.49.1-.13.19-.25.27-.36Z"></path><path class="cls-1" d="M274.11,132.63s-4.55,3.41-6.75,3.41c-.42,0-.72-.13-.88-.39-.15-.23-.23-.61-.23-1.06,0-.06,0-.11,0-.17v-.03c1.06-.43,2.7-1.31,2.7-2.6,0-.04,0-.08-.02-.12v-.08c-.04-.37-.24-.64-.53-.77-.28-.14-.73-.12-1.16.13-.34.19-.69.48-.98.82-.24.28-.58.76-.82,1.34-.04.11-.08.23-.12.34-.03.09-.05.18-.06.28-.03.13-.05.27-.05.41-.02.06-.02.13-.02.18v.05c0,.08,0,.15.02.23.03.47.18.89.44,1.27.37.57.98.86,1.82.86,2.44,0,6.17-2.47,7.25-3.23l.05-.03c.13-.11.2-.24.2-.38,0-.43-.53-.74-.89-.48ZM274.6,133.17s-.02.02-.06.04c-1.99,1.39-4.65,2.86-6.5,3.12,2.45-.51,6.28-3.4,6.29-3.41.03-.03.06-.03.09-.03.12,0,.21.12.21.22,0,.02-.02.05-.03.07ZM265.58,134.34c0-.08,0-.16.02-.24,0-.09.02-.18.03-.27.03-.17.08-.33.13-.48.04-.13.1-.27.16-.38.09-.18.18-.34.28-.49.12-.18.24-.34.34-.46.26-.3.58-.56.88-.73.21-.12.39-.18.57-.18.11,0,.19.02.26.06.18.08.3.24.33.46,0,.04,0,.08,0,.12,0,.02,0,.03,0,.06,0,1.16-1.8,1.99-2.58,2.3l-.12.04v.13c0,.05,0,.09,0,.14,0,.07,0,.13,0,.19,0,.31.03.88.29,1.26.06.08.13.17.2.23-.15-.11-.28-.24-.39-.41-.26-.38-.4-.83-.4-1.33h0Z"></path></g></g></g></svg>